<?xml version="1.0" encoding="UTF-8"?>
<svg width="17px" height="22px" viewBox="0 0 17 22" version="1.1" xmlns="http://www.w3.org/2000/svg" xmlns:xlink="http://www.w3.org/1999/xlink">
    <title>password-icon</title>
    <g id="Page-1" stroke="none" stroke-width="1" fill="none" fill-rule="evenodd">
        <g id="password-icon" transform="translate(0.110000, 0.000000)" fill="#323437" fill-rule="nonzero">
            <path d="M7.92656101,13.2 C7.19511182,13.2 6.6,13.7950857 6.6,14.526561 C6.6,14.8893354 6.75077524,15.2400999 7.01399878,15.4897211 L7.01399878,16.6874378 C7.01399878,17.1906224 7.42337639,17.6 7.92656101,17.6 C8.42974562,17.6 8.83912324,17.1906224 8.83912324,16.6874378 L8.83912324,15.4897211 C9.10224234,15.2402566 9.25312201,14.8894137 9.25312201,14.526561 C9.25312201,13.7950857 8.6580363,13.2 7.92656101,13.2 Z M8.39598763,15.0245762 C8.26933643,15.1439171 8.19670324,15.3107228 8.19670324,15.4822541 L8.19670324,16.6874378 C8.19670324,16.8363854 8.07556088,16.9575278 7.92661322,16.9575278 C7.77766556,16.9575278 7.65652321,16.8363854 7.65652321,16.6874378 L7.65652321,15.4822541 C7.65652321,15.3107228 7.58389001,15.143891 7.45731714,15.0246545 C7.31883889,14.8940349 7.24255054,14.7171514 7.24255054,14.526561 C7.24255054,14.1493749 7.54945321,13.8424722 7.92663933,13.8424722 C8.30382545,13.8424722 8.61072812,14.1493749 8.61072812,14.526561 C8.6106498,14.7171514 8.53436145,14.8940349 8.39598763,15.0245762 Z" id="Shape"></path>
            <path d="M14.3888875,9.01812699 L4.22933639,9.01812699 L4.22933639,4.81560316 C4.22933639,2.7433452 5.91517562,1.05737707 7.98747654,1.05737707 C10.0597775,1.05737707 11.7456597,2.7433452 11.7456597,4.81560316 L11.7456597,6.7177475 C11.7456597,7.00972072 11.9824179,7.24643603 12.2743482,7.24643603 C12.5662784,7.24643603 12.8030367,7.00976369 12.8030367,6.7177475 L12.8030367,4.81560316 C12.8030367,2.16025813 10.6427786,0 7.98747654,0 C5.33217448,0 3.17191635,2.16025813 3.17191635,4.81560316 L3.17191635,9.01812699 L1.58602263,9.01812699 C0.711477952,9.01812699 0,9.72964791 0,10.6041496 L0,20.4139774 C0,21.288522 0.711477952,22 1.58602263,22 L14.3888875,22 C15.2634322,22 15.9749101,21.288522 15.9749101,20.4139774 L15.9749101,10.6041926 C15.9749101,9.72964791 15.2634322,9.01812699 14.3888875,9.01812699 Z M14.917619,20.4140203 C14.917619,20.7055209 14.680431,20.9427089 14.3888875,20.9427089 L1.5860656,20.9427089 C1.29456503,20.9427089 1.05737707,20.7055639 1.05737707,20.4140203 L1.05737707,10.6041926 C1.05737707,10.312692 1.29456503,10.0755041 1.5860656,10.0755041 L14.3889304,10.0755041 C14.680431,10.0755041 14.917619,10.312649 14.917619,10.6041926 L14.917619,20.4140203 L14.917619,20.4140203 Z" id="Shape"></path>
        </g>
    </g>
</svg>