<?xml version="1.0" encoding="UTF-8"?>
<svg width="30px" height="29px" viewBox="0 0 30 29" version="1.1" xmlns="http://www.w3.org/2000/svg" xmlns:xlink="http://www.w3.org/1999/xlink">
    <title>percentage-icon</title>
    <g id="Page-1" stroke="none" stroke-width="1" fill="none" fill-rule="evenodd">
        <g id="percentage-icon" transform="translate(0.000000, 1.000000)">
            <path d="M29.0630384,12.8000678 C28.059921,11.9733266 26.4744109,11.9024245 25.4337916,13.0192195 L22.8504378,15.7924267 C22.5164365,14.7189933 21.5139051,13.9373716 20.3321264,13.9373716 L15.7220291,13.9373716 C15.3722066,13.9373716 15.2550718,13.8037711 14.6474237,13.3356418 C12.3306264,11.3159299 8.85080133,11.3223756 6.54103563,13.3549787 L4.84653554,14.8467342 C4.08483672,14.4435887 3.19539703,14.4336272 2.42953784,14.8162639 L0.486001674,15.787739 C0.0517999435,16.0051328 -0.123931634,16.5330307 0.0928176508,16.9672324 L5.3662299,27.5139983 C5.58362374,27.9482001 6.11152164,28.1239316 6.54572337,27.9071823 L8.48925953,26.9351213 C9.44725739,26.4564446 9.98042899,25.4790513 9.94585692,24.4841961 L20.3320678,24.4841961 C22.2580249,24.4841961 24.0984309,23.5642861 25.2538997,22.0233094 L29.4732154,16.3972035 C30.2917531,15.3067184 30.1622543,13.7076724 29.0630384,12.8000678 Z M7.70289149,25.3630298 L6.54566477,25.9419068 L2.05803461,16.9672324 L3.21584729,16.3883554 C3.65004902,16.1715475 4.17736095,16.3467517 4.3947548,16.7815394 L8.09607551,24.1841808 C8.31288339,24.618324 8.13709322,25.1456359 7.70289149,25.3630298 Z M28.0669526,15.3424624 L23.8476955,20.9685684 C23.0221262,22.0695422 21.7078603,22.7263529 20.3321264,22.7263529 L9.33240781,22.7263529 L6.0388617,16.1387333 L7.70230552,14.6745184 C9.3575458,13.2184484 11.8536491,13.2184484 13.5088894,14.6745184 C14.4838803,15.5329018 15.0902978,15.6952147 15.7219705,15.6952147 L20.3320678,15.6952147 C20.8166627,15.6952147 21.2109601,16.0895707 21.2109601,16.574107 C21.2109601,17.0586433 20.8166041,17.4529993 20.3320678,17.4529993 L15.8432657,17.4529993 C15.3580848,17.4529993 14.9643734,17.8467693 14.9643734,18.3318916 C14.9643734,18.8170138 15.3581434,19.2107838 15.8432657,19.2107838 L20.9209649,19.2107838 C21.6504355,19.2107838 22.3535962,18.9049089 22.8504378,18.3711514 L26.7199311,14.2174639 C27.0738554,13.8377572 27.6164024,13.8693994 27.9492318,14.1606251 C28.2972378,14.4652695 28.3347983,14.9861944 28.0669526,15.3424624 Z" id="Shape" fill="#323437" fill-rule="nonzero"></path>
            <g id="percentage-svgrepo-com" transform="translate(14.000000, 0.000000)" stroke="#323437" stroke-linecap="round" stroke-linejoin="round" stroke-width="2">
                <path d="M3.33333333,1.66666667 C3.33333333,2.58713889 2.58713889,3.33333333 1.66666667,3.33333333 C0.746194444,3.33333333 0,2.58713889 0,1.66666667 C0,0.746194444 0.746194444,0 1.66666667,0 C2.58713889,0 3.33333333,0.746194444 3.33333333,1.66666667 Z" id="Path"></path>
                <path d="M10,8.33333333 C10,9.25383333 9.25383333,10 8.33333333,10 C7.41283333,10 6.66666667,9.25383333 6.66666667,8.33333333 C6.66666667,7.41283333 7.41283333,6.66666667 8.33333333,6.66666667 C9.25383333,6.66666667 10,7.41283333 10,8.33333333 Z" id="Path"></path>
                <line x1="0.555555556" y1="9.44444444" x2="9.44444444" y2="0.555555556" id="Path"></line>
            </g>
        </g>
    </g>
</svg>