<?xml version="1.0" encoding="UTF-8"?>
<svg width="22px" height="17px" viewBox="0 0 22 17" version="1.1" xmlns="http://www.w3.org/2000/svg" xmlns:xlink="http://www.w3.org/1999/xlink">
    <title>mail-icon</title>
    <g id="Page-1" stroke="none" stroke-width="1" fill="none" fill-rule="evenodd">
        <g id="mail-icon" transform="translate(0.000000, 0.300000)" fill="#323437" fill-rule="nonzero">
            <path d="M20.3059072,0 L1.69409283,0 C0.761181435,0 0,0.761181435 0,1.69409283 L0,14.8012658 C0,15.7341772 0.761181435,16.4953586 1.69409283,16.4953586 L20.3059072,16.4953586 C21.2388186,16.4953586 22,15.7341772 22,14.8012658 L22,1.69409283 C22,0.761181435 21.2388186,0 20.3059072,0 Z M20.0599156,1.25316456 L11.1160338,8.9021097 L2.1721519,1.25316456 L20.0599156,1.25316456 Z M20.7468354,14.8012658 C20.7468354,15.042616 20.5472574,15.2421941 20.3059072,15.2421941 L1.69409283,15.2421941 C1.45274262,15.2421941 1.25316456,15.042616 1.25316456,14.8012658 L1.25316456,2.1164557 L10.7075949,10.2016878 C10.7122363,10.2063291 10.721519,10.2109705 10.7261603,10.2156118 C10.7308017,10.2202532 10.7400844,10.2248945 10.7447257,10.2295359 C10.7586498,10.2388186 10.7679325,10.2481013 10.7818565,10.2527426 C10.7864979,10.257384 10.7911392,10.257384 10.7957806,10.2620253 C10.814346,10.271308 10.8329114,10.2805907 10.8514768,10.2898734 C10.8561181,10.2898734 10.8607595,10.2945148 10.8654008,10.2945148 C10.8793249,10.2991561 10.8932489,10.3084388 10.9118143,10.3130802 C10.9164557,10.3130802 10.9257384,10.3177215 10.9303797,10.3177215 C10.9443038,10.3223629 10.9582278,10.3270042 10.9721519,10.3270042 C10.9767932,10.3270042 10.9860759,10.3316456 10.9907173,10.3316456 C11.0046414,10.3362869 11.0232068,10.3362869 11.0371308,10.3409283 C11.0417722,10.3409283 11.0464135,10.3409283 11.0510549,10.3409283 C11.0696203,10.3409283 11.092827,10.3455696 11.1113924,10.3455696 L11.1113924,10.3455696 L11.1113924,10.3455696 C11.1299578,10.3455696 11.1531646,10.3455696 11.17173,10.3409283 C11.1763713,10.3409283 11.1810127,10.3409283 11.185654,10.3409283 C11.1995781,10.3409283 11.2181435,10.3362869 11.2320675,10.3316456 C11.2367089,10.3316456 11.2459916,10.3270042 11.2506329,10.3270042 C11.264557,10.3223629 11.278481,10.3177215 11.2924051,10.3177215 C11.2970464,10.3177215 11.3063291,10.3130802 11.3109705,10.3130802 C11.3248945,10.3084388 11.3388186,10.3037975 11.357384,10.2945148 C11.3620253,10.2945148 11.3666667,10.2898734 11.371308,10.2898734 C11.3898734,10.2805907 11.4084388,10.271308 11.4270042,10.2620253 C11.4316456,10.257384 11.4362869,10.257384 11.4409283,10.2527426 C11.4548523,10.2434599 11.464135,10.2388186 11.4780591,10.2295359 C11.4827004,10.2248945 11.4919831,10.2202532 11.4966245,10.2156118 C11.5012658,10.2109705 11.5105485,10.2063291 11.5151899,10.2016878 L20.7468354,2.31603376 L20.7468354,14.8012658 Z" id="Shape"></path>
        </g>
    </g>
</svg>