<?xml version="1.0" encoding="UTF-8"?>
<svg width="490px" height="428px" viewBox="0 0 490 428" version="1.1" xmlns="http://www.w3.org/2000/svg" xmlns:xlink="http://www.w3.org/1999/xlink">
    <title>shop-icon</title>
    <g id="Page-1" stroke="none" stroke-width="1" fill="none" fill-rule="evenodd">
        <g id="shop-icon" transform="translate(0.000000, 0.000000)" fill="#323437" fill-rule="nonzero">
            <path d="M347.7,232.7 L281.2,232.7 C263,232.7 248.2,247.5 248.2,265.7 L248.2,316.7 C248.2,334.9 263,349.7 281.2,349.7 L347.7,349.7 C365.9,349.7 380.7,334.9 380.7,316.7 L380.7,265.7 C380.7,247.5 365.9,232.7 347.7,232.7 Z M356.7,316.7 C356.7,321.7 352.6,325.7 347.7,325.7 L281.2,325.7 C276.2,325.7 272.2,321.6 272.2,316.7 L272.2,265.7 C272.2,260.7 276.3,256.7 281.2,256.7 L347.7,256.7 C352.7,256.7 356.7,260.8 356.7,265.7 L356.7,316.7 Z" id="Shape"></path>
            <path d="M489.4,140 C489.4,137.9 488.9,135.9 487.8,134.1 L415,6.1 C412.9,2.4 408.9,0 404.6,0 L84.7,0 C80.4,0 76.4,2.3 74.3,6.1 L1.6,134.1 C0.6,135.9 0,137.9 0,140 C0,168.7 17.3,193.3 42,204.2 L42,415.3 C42,421.9 47.4,427.3 54,427.3 L120.3,427.3 C120.4,427.3 120.5,427.3 120.6,427.3 L213.6,427.3 C213.7,427.3 213.8,427.3 213.9,427.3 L435.3,427.3 C441.9,427.3 447.3,421.9 447.3,415.3 L447.3,205.7 C447.3,205.2 447.3,204.8 447.2,204.4 C472,193.5 489.4,168.8 489.4,140 Z M91.7,24.1 L397.6,24.1 L454.5,124.2 L34.9,124.2 L91.7,24.1 Z M348.3,148.1 C344.5,169.7 325.6,186.1 302.9,186.1 C280.2,186.1 261.3,169.7 257.5,148.1 L348.3,148.1 Z M232,148.1 C228.2,169.7 209.3,186.1 186.6,186.1 C163.9,186.1 145,169.7 141.1,148.1 L232,148.1 Z M24.8,148.1 L115.7,148.1 C111.9,169.7 92.9,186.1 70.2,186.1 C47.5,186.2 28.6,169.7 24.8,148.1 Z M201.6,403.3 L132.6,403.3 L132.6,273.8 C132.6,264.4 140.2,256.7 149.7,256.7 L184.6,256.7 C194,256.7 201.7,264.3 201.7,273.8 L201.7,403.3 L201.6,403.3 Z M423.3,403.3 L225.6,403.3 L225.6,273.8 C225.6,251.2 207.2,232.7 184.5,232.7 L149.6,232.7 C127,232.7 108.5,251.1 108.5,273.8 L108.5,403.4 L66,403.4 L66,210.1 C67.4,210.2 68.8,210.2 70.2,210.2 C94.4,210.2 115.8,197.9 128.4,179.2 C141,197.9 162.4,210.2 186.6,210.2 C210.8,210.2 232.1,197.9 244.8,179.2 C257.4,197.9 278.8,210.2 302.9,210.2 C327.1,210.2 348.4,197.9 361,179.2 C373.6,197.9 395,210.2 419.2,210.2 C420.6,210.2 421.9,210.1 423.3,210.1 L423.3,403.3 L423.3,403.3 Z M419.2,186.2 C396.5,186.2 377.6,169.8 373.8,148.2 L464.7,148.2 C460.8,169.7 441.9,186.2 419.2,186.2 Z" id="Shape"></path>
        </g>
    </g>
</svg>