<?xml version="1.0" encoding="UTF-8"?>
<svg width="50px" height="37px" viewBox="0 0 50 37" version="1.1" xmlns="http://www.w3.org/2000/svg" xmlns:xlink="http://www.w3.org/1999/xlink">
    <!-- Generator: Sketch 63.1 (92452) - https://sketch.com -->
    <title>cloud-computing</title>
    <desc>Created with Sketch.</desc>
    <defs>
        <linearGradient x1="50%" y1="0%" x2="50%" y2="100%" id="linearGradient-1">
            <stop stop-color="#FBDD3C" offset="0%"></stop>
            <stop stop-color="#E04545" offset="100%"></stop>
        </linearGradient>
    </defs>
    <g id="Page-1" stroke="none" stroke-width="1" fill="none" fill-rule="evenodd">
        <g id="HRDRV-Artist-Registration" transform="translate(-935.000000, -1998.000000)" fill="url(#linearGradient-1)">
            <g id="Group-3" transform="translate(884.000000, 1998.000000)">
                <g id="cloud-computing" transform="translate(51.000000, 0.000000)">
                    <path d="M39.0204082,36.3367347 L30.9489796,36.3367347 L28.7755102,36.3367347 L28.3061224,36.3367347 L28.3061224,25.5102041 L31.8469388,25.5102041 C32.744898,25.5102041 33.2755102,24.4897959 32.744898,23.755102 L25.8571429,14.2244898 C25.4183673,13.6122449 24.5102041,13.6122449 24.0714286,14.2244898 L17.1836735,23.755102 C16.6530612,24.4897959 17.1734694,25.5102041 18.0816327,25.5102041 L21.622449,25.5102041 L21.622449,36.3367347 L21.1530612,36.3367347 L18.9795918,36.3367347 L9.62244898,36.3367347 C4.26530612,36.0408163 0,31.0306122 0,25.6020408 C0,21.8571429 2.03061224,18.5918367 5.04081633,16.8265306 C4.76530612,16.0816327 4.62244898,15.2857143 4.62244898,14.4489796 C4.62244898,10.622449 7.71428571,7.53061224 11.5408163,7.53061224 C12.3673469,7.53061224 13.1632653,7.67346939 13.9081633,7.94897959 C16.122449,3.25510204 20.8979592,0 26.4489796,0 C33.6326531,0.0102040816 39.5510204,5.51020408 40.2244898,12.5204082 C45.744898,13.4693878 49.9387755,18.5816327 49.9387755,24.3673469 C49.9387755,30.5510204 45.122449,35.9081633 39.0204082,36.3367347 Z" id="Path"></path>
                </g>
            </g>
        </g>
    </g>
</svg>