<?xml version="1.0" encoding="UTF-8"?>
<svg width="361px" height="457px" viewBox="0 0 361 457" version="1.1" xmlns="http://www.w3.org/2000/svg" xmlns:xlink="http://www.w3.org/1999/xlink">
    <title>user-icon</title>
    <g id="Page-1" stroke="none" stroke-width="1" fill="none" fill-rule="evenodd">
        <g id="user-icon" transform="translate(0.000000, -0.000000)" fill="#323437" fill-rule="nonzero">
            <path d="M276.344,220.526 C270.172,228.298 263.238,235.473 255.274,241.949 C300.733,268.025 331.423,317.049 331.423,373.107 C331.423,403.397 265.056,427.125 180.333,427.125 C95.61,427.125 29.243,403.397 29.243,373.107 C29.243,317.049 59.933,268.025 105.392,241.949 C97.429,235.473 90.495,228.299 84.322,220.526 C33.698,252.495 0,308.936 0,373.107 C0,392.546 10.644,419.637 61.355,438.308 C92.987,449.955 135.241,456.368 180.334,456.368 C225.427,456.368 267.681,449.955 299.313,438.308 C350.023,419.637 360.668,392.546 360.668,373.107 C360.668,308.936 326.968,252.495 276.344,220.526 Z" id="Path"></path>
            <path d="M180.332,239.795 C237.165,239.795 280.929,184.859 280.929,119.898 C280.929,54.907 237.143,0 180.332,0 C123.499,0 79.735,54.936 79.735,119.897 C79.735,184.888 123.522,239.795 180.332,239.795 Z M180.332,29.243 C219.676,29.243 251.686,69.91 251.686,119.897 C251.686,169.884 219.676,210.551 180.332,210.551 C140.988,210.551 108.978,169.884 108.978,119.897 C108.978,69.91 140.988,29.243 180.332,29.243 Z" id="Shape"></path>
        </g>
    </g>
</svg>